<svg id="Layer_1" enable-background="new 0 0 511.995 511.995" height="512" viewBox="0 0 511.995 511.995" width="512" xmlns="http://www.w3.org/2000/svg"><g><g><g><g><path d="m446.364 468.133c19.891 0 33.578-20.194 25.973-38.573-6.882-16.631-17.214-28.754-4.601-57.023 22.288-49.951 10.291-76.443-9.43-108.515-33.432-54.371-8.989-82.141-21.99-129.241-46.81-169.598-313.825-169.609-360.639 0-13 47.101 11.443 74.87-21.99 129.241-19.721 32.072-31.718 58.564-9.43 108.515 12.613 28.269 2.281 40.393-4.601 57.023-7.605 18.379 6.082 38.573 25.973 38.573z" fill="#735351"/><path d="m467.736 372.537c22.288-49.951 10.291-76.443-9.43-108.515-33.432-54.371-8.989-82.141-21.99-129.241-24.898-90.21-112.097-132.44-195.321-126.685 73.243 5.064 143.409 47.294 165.322 126.685 13 47.101-11.443 74.87 21.99 129.241 19.721 32.072 31.718 58.564 9.43 108.515-12.614 28.269-2.281 40.393 4.601 57.023 7.605 18.379-6.082 38.573-25.973 38.573h30c19.891 0 33.578-20.194 25.973-38.573-6.883-16.631-17.215-28.755-4.602-57.023z" fill="#664442"/><g><g><ellipse cx="392.224" cy="270.685" fill="#fac8a2" rx="30.381" ry="30.523"/></g><g><ellipse cx="119.771" cy="270.685" fill="#fac8a2" rx="30.381" ry="30.523"/></g></g><g><path d="m115.763 504.578v-22.559c0-77.332 62.69-140.022 140.022-140.022h.426c77.332 0 140.022 62.69 140.022 140.022v22.559z" fill="#ff80b3"/><path d="m256.052 448.789h-.108c-19.618 0-35.521-15.904-35.521-35.521v-57.491h71.151v57.491c-.001 19.618-15.904 35.521-35.522 35.521z" fill="#ffd8ba"/></g><g><path d="m183.529 105.074c-4.497 45.751-27.728 50.849-42.074 55.825-6.878 2.386-11.472 8.911-11.472 16.221v86.505c0 69.92 56.419 126.6 126.014 126.6 69.596 0 126.014-56.681 126.014-126.6v-80.477c0-9.743-8.053-17.454-17.747-17.169-15.173.445-40.366.56-59.885-18.765-24.882-24.636-39.273-15.864-65.241-16.457-32.465-.741-45.9-15.867-51.345-26.497-1.037-2.027-4.041-1.453-4.264.814z" fill="#ffd8ba"/></g></g></g><g><path d="m301.668 327.151c0 21.884-20.447 28.625-45.67 28.625s-45.67-6.741-45.67-28.625 20.447-50.625 45.67-50.625 45.67 28.741 45.67 50.625z" fill="#fff"/></g><g><path d="m115.403 504.578s-79.576-217.5 45.843-273.5c24.525-10.95 58.816-7.581 73.087 10.999 0 0-161.029-21.345-61.706 262.501z" fill="#99d6ff"/><g><path d="m210.323 243.25c-.976-.129-166.727-21.683-67.696 261.328h30c-74.248-212.186-3.007-253.827 37.696-261.328z" fill="#7dcbff"/></g><path d="m396.593 504.578s79.576-217.5-45.843-273.5c-24.525-10.95-58.816-7.581-73.087 10.999 0 0 161.029-21.345 61.706 262.501z" fill="#99d6ff"/><path d="m350.75 231.078c-13.748-6.138-30.565-7.777-45.204-4.759 5.292 1.04 10.433 2.628 15.204 4.759 125.419 56 45.843 273.5 45.843 273.5h30s79.576-217.5-45.843-273.5z" fill="#7dcbff"/></g></g><g><path d="m196.712 180.052c-.061 0-.121.001-.182.002-18.772.446-33.223 11.731-33.828 12.212-3.246 2.572-3.792 7.29-1.22 10.536 2.457 3.1 7.363 3.734 10.536 1.22.109-.086 11.282-8.649 24.867-8.972 4.142-.099 7.419-3.535 7.32-7.676-.096-4.081-3.435-7.322-7.493-7.322z"/><path d="m349.294 192.265c-.605-.48-15.056-11.766-33.828-12.212-4.098-.066-7.578 3.195-7.676 7.32-.099 4.141 3.179 7.577 7.32 7.676 13.569.322 24.67 8.819 24.886 8.986 3.173 2.497 8.066 1.859 10.518-1.234 2.572-3.245 2.026-7.963-1.22-10.536z"/><path d="m217.942 288.832c-16.974 20.061-23.842 53.774 2.225 67.452 15.848 9.312 55.813 9.312 71.662 0 50.513-27.143-19.937-130.119-73.887-67.452zm76.226 38.319c0 5.225 0 21.125-38.17 21.125s-38.17-15.9-38.17-21.125c0-22.82 21.345-43.125 38.17-43.125s38.17 20.305 38.17 43.125z"/><path d="m98.642 386.266c-.586-9.365-15.584-8.857-14.971.938 1.699 27.118 6.401 52.819 11.254 73.429h-29.293c-6.994 0-13.238-3.341-17.133-9.167-5.932-8.875-2.775-17.44 1.29-26.184 6.272-13.483 13.383-28.767 1.319-55.801-39.498-88.183 38.268-94.009 28.3-185.619-.668-15.272-1.299-29.697 3.499-47.086 13.63-49.382 48.295-87.513 97.607-107.368 27.673-11.142 58.637-15.936 89.545-13.858 31.18 2.093 60.981 11.111 86.184 26.079 8.069 4.796 16.097-7.886 7.66-12.896-55.293-32.841-127.711-37.913-188.99-13.239-53.751 21.642-91.561 63.297-106.464 117.292-5.43 19.67-4.715 35.97-4.024 51.732 1.003 22.911 1.951 44.553-17.124 75.575-20.168 32.8-33.703 62.132-9.891 115.499 9.278 20.793 4.645 30.753-1.222 43.363-6.308 13.555-9.06 27.53-.16 40.846 6.627 9.913 17.693 15.831 29.604 15.831h33.065c4.964 18.555 9.278 30.472 9.662 31.521 3.267 8.93 17.431 4.002 14.088-5.151-.2-.546-20.023-55.392-23.805-115.736z"/><path d="m475.807 418.956c-5.866-12.61-10.5-22.57-1.223-43.363 23.812-53.367 10.278-82.699-9.89-115.499-19.075-31.022-18.127-52.664-17.124-75.575.69-15.763 1.405-32.062-4.024-51.732-8.167-29.589-22.998-55.318-44.081-76.475-6.845-6.87-17.47 3.72-10.625 10.588 19.235 19.302 32.776 42.812 40.247 69.877 4.799 17.389 4.167 31.813 3.498 47.086-9.983 91.585 67.795 97.395 28.302 185.619-12.063 27.034-4.953 42.317 1.319 55.801 4.065 8.743 7.222 17.308 1.29 26.184-3.895 5.826-10.139 9.167-17.133 9.167h-29.293c4.724-20.066 9.307-44.959 11.115-71.291 2.424-35.277-.691-66.019-9.258-91.442 25.089-24.595 5.787-67.26-29.163-65.141v-49.611c0-13.653-11.803-25.07-25.467-24.666-12.773.376-36.541 1.072-54.389-16.599-21.584-21.369-37.679-20.297-54.727-19.163-4.918.328-10.004.664-15.62.538-27.896-.637-39.782-12.543-44.842-22.419-4.275-8.349-17.467-6.006-18.403 3.501-3.764 38.291-20.773 43.997-34.44 48.582-10.902 3.657-19.141 12.036-19.141 24.197v55.639c-34.622-2.219-54.113 40.168-29.53 64.772-4.998 14.722-8.179 31.23-9.491 49.338-.679 9.359 14.25 10.878 14.961 1.084 4.013-55.355 26.093-92.374 65.628-110.026 15.035-6.714 33.204-7.215 47.086-2.514-16.199 2.553-37.564 10.021-54.14 30.392-35.319 43.41-32.527 124.579 8.298 241.251 3.143 8.984 17.376 4.242 14.158-4.955-11.106-31.738-21.671-67.768-27.415-102.547 7.922-9.952 17.163-18.665 27.528-25.96 10.237 7.187 21.52 12.944 33.355 16.991v22.682c-.004 23.759 19.371 43.084 43.13 43.021 23.722 0 43.021-19.3 43.021-43.021v-22.652c11.867-4.043 23.065-9.737 33.286-16.893 10.212 7.213 19.313 15.789 27.136 25.571-5.733 34.855-16.322 70.983-27.458 102.807-3.066 8.763 10.819 14.498 14.158 4.955 40.825-116.672 43.617-197.841 8.298-241.251-16.575-20.371-37.941-27.84-54.141-30.393 45.659-15.463 88.658 24.415 103.115 64.438 8.66 23.979 11.863 53.645 9.521 88.176-4.048 59.643-23.496 113.441-23.692 113.978-3.22 8.813 10.719 14.366 14.087 5.152.38-1.039 4.696-12.957 9.663-31.522h33.065c11.91 0 22.977-5.918 29.604-15.831 8.901-13.316 6.15-27.291-.159-40.846zm-86.076-171.294c19.517 0 30.981 19.284 22.738 34.205-5.98-12.59-13.562-23.567-22.705-32.886zm-292.589 23.023c0-11.953 13.666-27.393 25.594-22.2-9.479 9.538-17.185 20.809-22.988 32.922-1.697-3.245-2.606-6.899-2.606-10.722zm52.427 109.215c-1.436-13.037-2.049-25.738-1.599-37.793 5.73 7.967 12.316 15.281 19.643 21.814-6.445 4.83-12.473 10.169-18.044 15.979zm134.757 33.367c0 15.451-12.57 28.021-28.021 28.021-15.488.062-28.133-12.532-28.13-28.021v-18.521c18.44 3.967 37.708 3.966 56.151.014zm60.495-49.206c7.09-6.319 13.545-13.433 19.23-21.26.399 11.774-.207 24.157-1.597 36.862-5.451-5.661-11.341-10.872-17.633-15.602zm-35.455-145.991c-16.33 2.185-29.702 9.088-37.651 19.438-3.99 5.196.434 12.87 6.934 12.003 29.573-3.057 73.653 12.349 82.884 68.857-44.123 85.638-167.386 85.12-210.933-.722 3.076-16.322 8.869-30.736 18.166-42.226 24.741-30.581 62.987-26.109 64.583-25.909 6.502.876 10.92-6.811 6.934-12.003-7.949-10.351-21.321-17.254-37.651-19.438-14.985-2.009-31.185.239-44.441 6.159-7.33 3.273-14.152 7.14-20.452 11.588v-58.697c0-5.667 4.148-8.376 8.911-9.977 13.431-4.505 35.007-11.743 42.614-48.139 20.435 20.486 45.47 19.968 66.918 18.683 50.27-6.242 35.186 38.957 108.559 35.789 5.408-.19 10.026 4.265 10.026 9.672v53.017c-6.433-4.589-13.421-8.572-20.957-11.936-13.26-5.919-29.458-8.167-44.444-6.159z"/></g></g></svg>