<svg id="Layer_1" enable-background="new 0 0 512.235 512.235" height="512" viewBox="0 0 512.235 512.235" width="512" xmlns="http://www.w3.org/2000/svg"><g><g><g><g><g><path d="m87.886 468.291c-19.891 0-33.578-20.194-25.973-38.573 6.882-16.631 17.214-28.755 4.601-57.023-22.288-49.951-10.291-76.443 9.43-108.515 33.432-54.371 8.989-82.141 21.99-129.241 46.81-169.598 313.825-169.609 360.639 0 13 47.101-11.443 74.87 21.99 129.241 19.721 32.072 31.718 58.564 9.43 108.515-12.613 28.269-2.281 40.393 4.601 57.023 7.605 18.379-6.082 38.573-25.973 38.573z" fill="#735351"/><path d="m489.99 372.694c22.288-49.951 10.291-76.443-9.43-108.515-33.432-54.372-8.989-82.141-21.99-129.241-24.898-90.213-112.093-132.439-195.315-126.685 73.241 5.064 143.403 47.291 165.317 126.685 13 47.101-11.443 74.87 21.99 129.241 19.721 32.072 31.718 58.563 9.43 108.515-12.613 28.269-2.281 40.393 4.601 57.023 7.605 18.379-6.082 38.573-25.973 38.573h30c19.891 0 33.578-20.194 25.973-38.573-6.884-16.63-17.216-28.754-4.603-57.023z" fill="#664442"/><g><g><ellipse cx="142.025" cy="270.842" fill="#fac8a2" rx="30.381" ry="30.523"/></g><g><ellipse cx="414.479" cy="270.842" fill="#fac8a2" rx="30.381" ry="30.523"/></g></g><path d="m115.608 504.735c-49.947 0-90.437-40.49-90.437-90.437v-124.396h59.546v93.575c0 40.028 53.987 56.095 75.854 22.467 24.969-38.397 68.253-63.79 117.468-63.79h.426c77.332 0 140.022 62.69 140.022 140.022v22.559z" fill="#ff80b3"/><g fill="#ff6ba7"><path d="m278.465 342.154h-.426c-4.995 0-9.93.262-14.79.772 70.383 7.386 125.238 66.911 125.238 139.25v22.559h30v-22.559c0-77.332-62.69-140.022-140.022-140.022z"/><path d="m111.768 421.445c-15.012-5.505-27.052-19.064-27.052-37.968v-93.575h-30v93.575c.001 30.962 32.3 47.587 57.052 37.968z"/></g><path d="m278.198 448.947h.108c19.618 0 35.521-15.904 35.521-35.521v-57.491h-71.151v57.491c0 19.617 15.904 35.521 35.522 35.521z" fill="#ffd8ba"/><g><path d="m205.783 105.232c-4.497 45.751-27.728 50.849-42.074 55.825-6.878 2.386-11.472 8.911-11.472 16.221v86.505c0 69.919 56.419 126.6 126.014 126.6 69.596 0 126.014-56.681 126.014-126.6v-80.477c0-9.743-8.053-17.454-17.747-17.169-15.173.445-40.366.56-59.885-18.765-24.882-24.636-39.273-15.864-65.241-16.457-32.465-.741-45.9-15.867-51.345-26.497-1.037-2.028-4.041-1.454-4.264.814z" fill="#ffd8ba"/></g></g><g><g><g><ellipse cx="225.529" cy="250.077" fill="#fff" rx="35.303" ry="35.467"/></g></g></g></g><path d="m69.172 182.367 5.589 25.834 9.305-2.013c10.025-2.169 18.947 6.734 16.799 16.764-5.806 14.037-11.172 37.612-26.609 43.898v22.676h-37.079v-23.992c-4.818-3.85-8.53-9.296-10.553-15.271-7.607-17.558-11.988-36.371-15.891-55.053-6.402-28.271 52.366-40.919 58.439-12.843z" fill="#ffd8ba"/></g><path d="m236.453 310.506c-9.707 0-15.801 10.415-11.119 18.918 16.531 30.024 89.326 29.986 105.836 0 4.682-8.503-1.413-18.918-11.119-18.918z" fill="#fff"/></g><g><path d="m498.061 419.112c-5.866-12.609-10.499-22.569-1.223-43.361 23.814-53.369 10.279-82.7-9.89-115.5-31.808-51.302-7.746-77.103-21.148-127.309-7.844-28.418-21.863-53.316-41.666-74.003-6.491-6.779-17.621 3.284-10.836 10.373 18.067 18.873 30.867 41.624 38.043 67.621 4.799 17.388 4.167 31.814 3.498 47.086-1.058 24.163-2.152 49.147 19.332 84.088 18.998 30.896 29.886 54.654 8.969 101.53-12.062 27.034-4.952 42.317 1.32 55.801 4.069 8.741 7.222 17.311 1.291 26.184-3.895 5.827-10.14 9.168-17.134 9.168h-44.17c-5.586-38.504-26.132-73.221-57.612-96.756 16.963-15.137 30.072-34.54 37.641-56.517 23.755 6.511 47.883-12.098 47.883-36.675 0-21.657-18.959-39.463-40.594-37.926v-49.611c0-13.635-11.803-25.099-25.467-24.666-12.769.374-36.541 1.073-54.389-16.599-21.584-21.37-37.681-20.298-54.727-19.164-4.919.328-10.003.667-15.62.538-27.896-.637-39.783-12.543-44.842-22.42-4.414-8.615-17.34-5.832-18.403 3.502-3.764 38.292-20.774 43.998-34.441 48.582-10.901 3.659-19.14 12.035-19.14 24.198v55.639c-21.636-1.538-40.594 16.263-40.594 37.926 0 24.573 24.125 43.187 47.883 36.675 7.571 21.981 20.684 41.388 37.651 56.527-13.859 10.406-25.978 23.328-35.395 37.81-9.846 15.141-26.462 16.621-37.699 13.289-11.241-3.333-24.368-13.627-24.368-31.666v-93.576c0-5.534-5.647-8.094-10.46-7.5v-11.015c12.281-7.781 18.054-23.792 22.791-36.931 3.816-10.585 6.996-20.869-2.477-30.023.181-7.023-.116-13.812-.405-20.412-.669-15.272-1.301-29.698 3.499-47.087 30.038-116.234 181.635-153.786 277.332-92.7 7.937 5.009 16.305-7.445 8.008-12.684-27.055-17.079-59.297-27.628-93.242-30.508-89.497-9.198-184.444 43.272-206.557 131.902-6.889 25.223-3.886 43.177-3.584 65.422-2.118-.003-4.489.404-6.614.92l-4.002-18.503c-2.068-9.558-8.774-16.589-18.883-19.798-14.681-4.661-34.25-.362-45.525 9.996-7.743 7.113-10.828 16.28-8.693 25.819 4.692 22.453 9.111 55.308 26.275 72.099v13.504c-5.118-.819-12.006 1.199-12.006 7.5v62.025c0 9.385 15 9.813 15 0v-54.525h44.545v86.076c0 21.649 13.779 39.723 35.104 46.047 20.525 6.088 42.78-1.41 54.539-19.492 9.182-14.12 21.221-26.591 35.015-36.313 10.161 7.143 21.353 12.902 33.303 17.004v22.702c-.004 23.76 19.37 43.084 43.13 43.021 23.722 0 43.021-19.299 43.021-43.021v-22.703c11.952-4.103 23.145-9.863 33.306-17.007 35.381 24.862 56.353 65.033 56.353 108.461v22.559c0 9.386 15 9.813 15 0 0-9.634.275-19.316-.136-28.945h42.767c11.91 0 22.978-5.918 29.604-15.832 8.902-13.318 6.145-27.289-.161-40.846zm-479.988-225.436c-.008-.041-.017-.082-.026-.123-.968-4.274.405-8.045 4.196-11.528 7.376-6.775 21.209-9.799 30.839-6.745 7.392 2.346 8.422 7.108 8.76 8.673l5.588 25.834c1.386 4.377 4.358 6.292 8.917 5.745l9.305-2.013c4.432-.962 8.584 2.838 7.974 7.321-4.879 12.072-8.534 33.499-22.199 39.064-2.825 1.15-4.671 3.896-4.671 6.946v15.176h-22.079v-16.492c0-2.28-1.037-4.436-2.817-5.859-16.451-13.147-19.814-46.987-23.787-65.999zm419.287 77.166c0 14.813-14.416 26.105-28.804 22.241 3.327-14.934 3.21-45.104 3.21-45.104 13.744 0 25.594 10.169 25.594 22.863zm-295.335 23.023c-12.617 0-22.881-10.328-22.881-23.023 0-13.535 12.122-24.459 25.594-22.863 0 15.164-.113 30.185 3.211 45.104-1.924.516-3.917.782-5.924.782zm17.713-30.082v-86.505c0-5.665 4.146-8.379 8.91-9.976 13.431-4.505 35.008-11.742 42.616-48.139 14.651 15.819 36.713 18.948 49.959 19.25 6.282.146 11.956-.234 16.959-.567 16.456-1.098 26.396-1.758 43.176 14.856 22.416 22.194 51.435 21.344 65.382 20.933 5.409-.156 10.027 4.24 10.027 9.672v80.477c-6.509 157.995-230.536 157.966-237.029-.001zm146.59 149.642c0 15.451-12.57 28.021-28.021 28.021h-.108c-15.451 0-28.021-12.57-28.021-28.021v-18.525c17.995 3.962 38.156 3.962 56.151 0v18.525z"/><path d="m115.608 497.235c-45.731 0-82.937-37.206-82.937-82.938v-23.915c0-9.385-15-9.813-15 0v23.915c0 54.003 43.935 97.938 97.937 97.938 9.386 0 9.813-15 0-15z"/><path d="m214.265 196.11c.119-.073 12.227-7.248 25.752-5.975 9.919.606 11.261-13.662 1.415-14.933-18.693-1.775-34.373 7.729-35.032 8.134-3.527 2.171-4.945 7.009-2.455 10.319 3.801 5.05 9.094 3.21 10.32 2.455z"/><path d="m316.403 189.815c13.563-.993 25.469 6.449 25.637 6.556 3.34 2.144 8.206 1.072 10.349-2.241 2.248-3.479 1.252-8.121-2.227-10.37-.649-.419-16.113-10.261-34.845-8.906-9.886 1.067-8.827 15.335 1.086 14.961z"/><path d="m225.529 293.044c23.602 0 42.803-19.275 42.803-42.967-2.353-57.002-83.261-56.986-85.606 0 0 23.693 19.201 42.967 42.803 42.967zm0-70.934c15.331 0 27.803 12.546 27.803 27.967-1.529 37.103-54.082 37.092-55.606 0 0-15.421 12.472-27.967 27.803-27.967z"/><path d="m225.784 257.577c9.992 0 10.008-15 0-15-9.992 0-10.008 15 0 15z"/><path d="m309.242 262.082c.265-.096 26.582-9.444 44.979 4.462 7.643 5.776 16.771-6.126 9.045-11.967-11.322-8.558-24.326-10.781-35.26-10.632 3.358-1.71 7.362-3.02 12.076-3.487 9.848-1.319 8.43-15.57-1.479-14.927-27.503 2.724-38.29 25.391-38.735 26.354-2.745 5.935 3.228 12.439 9.374 10.197z"/><path d="m219.061 312.926c-3.687 6.238-3.798 13.757-.297 20.114 18.6 35.15 100.458 35.06 118.975.001 7.359-13.362-2.634-30.036-17.688-30.036h-83.598c-7.219.001-13.721 3.709-17.392 9.921zm105.468 7.632c.461.779 1.391 2.852.07 5.248-6.132 11.138-24.763 18.621-46.359 18.621-21.583 0-40.204-7.483-46.336-18.621-1.906-3.462.562-7.8 4.549-7.8h83.598c2.681 0 4.025 1.785 4.478 2.552z"/></g></g></svg>